<?xml version="1.0" encoding="utf-8"?>
<!-- Generator: Adobe Illustrator 23.0.3, SVG Export Plug-In . SVG Version: 6.00 Build 0)  -->
<svg version="1.1" id="Layer_1" xmlns="http://www.w3.org/2000/svg" xmlns:xlink="http://www.w3.org/1999/xlink" x="0px" y="0px"
	 viewBox="0 0 229 245" style="enable-background:new 0 0 229 245;" xml:space="preserve">
<style type="text/css">
	.st0{fill:none;stroke:#231F20;stroke-width:2;}
	.st1{fill:none;stroke:#231F20;}
	.st2{clip-path:url(#SVGID_2_);fill:#FFFFFF;}
	.st3{clip-path:url(#SVGID_2_);fill:#231F20;}
	.st4{fill:none;stroke:#231F20;stroke-width:12;stroke-miterlimit:10;}
	.st5{fill:#231F20;}
</style>
<path class="st0" d="M21.63,154.83"/>
<path class="st1" d="M116.31,101.52"/>
<path class="st0" d="M181.83,154.83"/>
<g>
	<defs>
		<rect id="SVGID_1_" x="-31" y="-23.68" width="290.06" height="300.68"/>
	</defs>
	<clipPath id="SVGID_2_">
		<use xlink:href="#SVGID_1_"  style="overflow:visible;"/>
	</clipPath>
	<path class="st2" d="M188.77,124.76v-11.67h-14.5v-8.57h13.54V93.24h-13.54v-7.99h14.38V73.32h-27.4v51.44H188.77z M156.86,124.76
		V73.32h-17.02l-5.35,26.11l-5.16-26.11h-17.54v51.44h11.93V97.94l5.29,26.82h10.96l4.9-26.82v26.82H156.86z M91.42,114.32
		c-1.81,0-2.64-1.23-2.9-2.71c-0.39-2.39-0.64-6.25-0.64-12.51c0-3.48,0.19-10.32,0.51-12.05c0.39-1.93,1.03-2.97,3.03-2.97
		c1.93,0,2.64,0.97,3.03,2.9c0.39,1.87,0.45,8.7,0.45,12.12c0,6.12-0.19,9.67-0.64,12.44C94,112.96,93.1,114.32,91.42,114.32
		 M91.29,72.8c-10.64,0-14.44,5.09-15.92,11.86c-0.58,2.84-0.77,6.96-0.77,14.25c0,6.38,0,11.73,1.03,15.79
		c1.74,7.22,6.19,10.77,15.67,10.77c8.96,0,13.6-2.9,15.6-10.64c1.03-4.06,1.23-9.41,1.23-16.37c0-8.12-0.39-12.31-0.84-14.57
		C106.06,77.38,101.03,72.8,91.29,72.8 M70.86,124.76V73.32H57.77v20.11h-5.8V73.32H38.95v51.44h13.02v-20.05h5.8v20.05H70.86z"/>
	<path class="st3" d="M189.29,183.76v-11.89H174.5v-8.74h13.8v-11.5h-13.8v-8.15h14.65v-12.16h-27.93v52.43H189.29z M158.01,143.48
		v-12.16h-30.42v12.16H136v40.28h13.54v-40.28H158.01z M124.44,131.32H110.7v52.43h13.73V131.32z M106.24,169.83v-38.5H92.9v38.5
		c0,2.17-1.05,3.29-2.96,3.29c-1.97,0-3.02-1.05-3.02-3.35v-38.44H73.65v38.31c0,10.25,7.1,14.72,16.49,14.72
		C99.93,184.35,106.24,179.29,106.24,169.83 M70.3,169.89c0-7.29-3.02-10.51-8.02-14.26c-0.92-0.66-4.47-3.35-5.65-4.2
		c-3.29-2.5-5.26-3.81-5.26-6.83c0-1.84,1.12-2.76,2.96-2.76c1.77,0,2.56,0.86,2.76,2.3c0.07,0.2,0.13,3.09,0.13,3.68h12.75
		c0-0.79-0.07-3.68-0.33-5.19c-0.85-6.44-5.19-11.89-15.31-11.89c-9.79,0-15.9,5.32-15.9,14.06c0,8.08,2.96,11.17,7.95,14.72
		c1.58,1.12,4.86,3.55,5.65,4.07c3.88,2.76,5.06,4.2,5.06,7.03c0,2.04-0.85,3.28-2.76,3.28c-1.77,0-2.82-0.72-2.96-2.23
		c-0.13-1.51-0.2-2.96-0.2-3.55H38.49c0,0.79-0.07,3.29,0.13,5.45c0.59,6.9,6.05,10.91,15.77,10.91
		C64.78,184.48,70.3,179.16,70.3,169.89"/>
	<path class="st2" d="M188.23,240.76v-11.58h-14.4v-8.51h13.44v-11.2h-13.44v-7.94h14.27v-11.84h-27.2v51.07H188.23z M156.55,240.76
		v-51.07h-16.9l-5.31,25.92l-5.12-25.92h-17.41v51.07h11.84v-26.62l5.25,26.62h10.88l4.86-26.62v26.62H156.55z M91.59,230.39
		c-1.79,0-2.62-1.22-2.88-2.69c-0.38-2.37-0.64-6.21-0.64-12.42c0-3.46,0.19-10.24,0.51-11.97c0.38-1.92,1.02-2.94,3.01-2.94
		c1.92,0,2.62,0.96,3.01,2.88c0.38,1.86,0.45,8.64,0.45,12.03c0,6.08-0.19,9.6-0.64,12.35C94.15,229.05,93.25,230.39,91.59,230.39
		 M91.46,189.18c-10.56,0-14.34,5.06-15.81,11.78c-0.58,2.82-0.77,6.91-0.77,14.14c0,6.34,0,11.65,1.02,15.68
		c1.73,7.17,6.14,10.69,15.55,10.69c8.9,0,13.5-2.88,15.49-10.56c1.02-4.03,1.22-9.34,1.22-16.26c0-8.06-0.38-12.22-0.83-14.46
		C106.11,193.72,101.12,189.18,91.46,189.18 M71.17,240.76v-51.07H58.18v19.97h-5.76v-19.97H39.49v51.07h12.93v-19.9h5.76v19.9
		H71.17z"/>
</g>
<polyline class="st4" points="3.77,91.6 55.94,52.54 55.94,13.51 77.85,13.51 77.85,36.14 114.56,8.65 225.35,91.6 "/>
<polygon class="st5" points="61.02,17.4 58.97,57.9 73.52,46.9 73.02,17.4 "/>
</svg>
